<svg width="56" height="55" viewBox="0 0 56 55" fill="none" xmlns="http://www.w3.org/2000/svg">
<path d="M10.9645 35.6916C10.9645 28.6234 10.9645 21.6183 10.9645 14.4659C11.5319 14.9497 12.0573 15.3704 12.5407 15.8122C14.7265 17.7476 14.7265 17.7476 14.7265 20.6927C14.7265 24.1216 14.7265 27.5716 14.7265 31.0005C14.7265 31.2529 14.7265 31.5054 14.7265 31.7789C14.9366 31.8209 15.0627 31.842 15.1888 31.842C20.4851 31.842 25.7813 31.9261 31.0775 31.7789C36.2686 31.6316 40.7662 27.256 41.1445 22.2704C41.5858 16.5064 38.055 11.668 32.6117 10.5741C31.75 10.4058 30.8463 10.3638 29.9636 10.3427C26.8531 10.3217 23.7216 10.3427 20.6112 10.3217C19.2661 10.3217 18.4044 9.62749 18.3203 8.55463C18.2363 7.52385 18.8668 6.70342 19.8756 6.53513C20.1908 6.47202 20.5061 6.47202 20.8213 6.47202C24.2891 6.47202 27.7358 6.40891 31.2036 6.5141C38.076 6.7455 44.0238 12.1729 44.9275 18.9256C45.8943 26.078 41.775 32.7886 35.0496 34.8922C33.6415 35.334 32.1283 35.6285 30.6571 35.6285C24.2681 35.7127 17.858 35.6706 11.4689 35.6706C11.3007 35.7127 11.1746 35.6916 10.9645 35.6916Z" fill="#0095FF"/>
<path d="M38.7696 4.07385C37.8658 4.07385 37.1933 4.07385 36.5208 4.07385C31.2456 4.07385 25.9914 4.07385 20.7162 4.07385C18.2152 4.07385 16.5339 5.37811 16.0925 7.58693C15.5671 10.1744 17.5847 12.6778 20.2118 12.6988C23.5745 12.7198 26.9161 12.6988 30.2788 12.6988C34.8184 12.6988 38.3913 15.8963 38.7065 20.4612C39.0428 24.9841 36.1425 28.5182 31.75 29.3596C31.5188 29.4017 31.2876 29.4228 31.0564 29.4228C26.6009 29.4228 22.1453 29.4228 17.6898 29.4228C17.5217 29.4228 17.3325 29.4017 17.1223 29.4017C17.1223 28.0764 17.1223 26.7932 17.1223 25.4258C17.4376 25.4258 17.7528 25.4258 18.0681 25.4258C22.0192 25.4258 25.9914 25.4258 29.9425 25.4258C32.4225 25.4258 34.0828 24.2268 34.6083 22.1441C35.2388 19.6408 33.4944 16.9902 30.9303 16.864C28.051 16.7167 25.1717 16.8219 22.2925 16.7588C21.0315 16.7378 19.7494 16.7799 18.5305 16.5274C14.6634 15.7491 11.9522 12.3201 11.9312 8.40736C11.9102 4.6208 14.6214 1.14979 18.3413 0.266255C18.9928 0.119 19.6864 0.0348543 20.3589 0.0348543C25.0667 -0.00721856 29.7954 -0.00721856 34.5032 0.0138179C34.8394 0.0138179 35.3018 0.0769272 35.512 0.308328C36.5838 1.46533 37.6136 2.68545 38.7696 4.07385Z" fill="#0095FF"/>
<path d="M1.612 46.4412H0.0567627V39.373C1.06557 39.3309 1.67505 39.3099 1.94827 39.3099C2.97809 39.3099 3.79774 39.6044 4.38621 40.2144C4.99569 40.8245 5.28993 41.6239 5.28993 42.6126C5.28993 45.158 4.07096 46.4412 1.612 46.4412ZM1.31777 40.4669V45.2842C1.52793 45.3053 1.7381 45.3053 1.96928 45.3053C2.59979 45.3053 3.10419 45.0739 3.46147 44.6111C3.81876 44.1483 4.00791 43.5172 4.00791 42.6757C4.00791 41.1611 3.31435 40.4038 1.90623 40.4038C1.7381 40.4458 1.54895 40.4458 1.31777 40.4669Z" fill="#0095FF"/>
<path d="M10.7332 44.2324H7.05531C7.07633 44.6532 7.22345 44.9687 7.47565 45.2001C7.72785 45.4315 8.08513 45.5367 8.52649 45.5367C9.07292 45.5367 9.49325 45.3894 9.78749 45.116L10.2499 46.0416C9.82952 46.3781 9.19902 46.5675 8.35835 46.5675C7.58073 46.5675 6.95023 46.3361 6.48786 45.8733C6.0255 45.4105 5.79431 44.7583 5.79431 43.9379C5.79431 43.1175 6.04651 42.4654 6.55091 41.9605C7.05531 41.4556 7.6648 41.2032 8.35835 41.2032C9.11495 41.2032 9.70342 41.4346 10.1658 41.8764C10.6282 42.3181 10.8383 42.8861 10.8383 43.5803C10.8383 43.7065 10.7963 43.9169 10.7332 44.2324ZM7.09735 43.3068H9.64037C9.5563 42.5495 9.13597 42.1709 8.37937 42.1709C7.68582 42.1919 7.26548 42.5706 7.09735 43.3068Z" fill="#0095FF"/>
<path d="M13.7387 46.5254H13.2973L10.9645 41.2663H12.2885L13.5285 44.4218L14.8526 41.2663H16.1346L13.7387 46.5254Z" fill="#0095FF"/>
<path d="M16.3447 46.0416L16.8071 44.9266C17.3115 45.2843 17.7949 45.4526 18.2572 45.4526C18.9928 45.4526 19.3501 45.2001 19.3501 44.6742C19.3501 44.4428 19.2661 44.2114 19.0979 43.98C18.9298 43.7696 18.5725 43.5172 18.0261 43.2437C17.4796 42.9703 17.1223 42.7389 16.9332 42.5706C16.744 42.4023 16.5969 42.1919 16.4918 41.9395C16.3868 41.7081 16.3447 41.4346 16.3447 41.1401C16.3447 40.5931 16.5549 40.1303 16.9542 39.7727C17.3535 39.4151 17.8579 39.2258 18.4884 39.2258C19.3081 39.2258 19.8966 39.373 20.2749 39.6886L19.8966 40.7614C19.4552 40.4459 18.9928 40.2986 18.5094 40.2986C18.2152 40.2986 18.005 40.3828 17.8369 40.53C17.6688 40.6773 17.6057 40.8876 17.6057 41.119C17.6057 41.5187 18.0471 41.9395 18.9508 42.3812C19.4132 42.6126 19.7705 42.823 19.9806 43.0123C20.1908 43.2017 20.3379 43.4331 20.464 43.6855C20.5691 43.9379 20.6321 44.2324 20.6321 44.548C20.6321 45.116 20.401 45.5998 19.9596 45.9574C19.5183 46.3361 18.9088 46.5044 18.1522 46.5044C17.4586 46.5465 16.8701 46.3782 16.3447 46.0416Z" fill="#0095FF"/>
<path d="M21.1155 43.8327C21.1155 43.0544 21.3467 42.4022 21.788 41.9184C22.2504 41.4135 22.8389 41.1821 23.5955 41.1821C24.3731 41.1821 24.9826 41.4135 25.4239 41.8974C25.8653 42.3812 26.0754 43.0333 26.0754 43.8538C26.0754 44.6742 25.8442 45.3263 25.4029 45.8101C24.9615 46.294 24.3521 46.5464 23.5955 46.5464C22.8178 46.5464 22.2083 46.294 21.767 45.8101C21.3256 45.3053 21.1155 44.6531 21.1155 43.8327ZM22.3555 43.8327C22.3555 44.9687 22.7548 45.5367 23.5744 45.5367C23.9527 45.5367 24.247 45.3894 24.4782 45.0949C24.6883 44.8004 24.8144 44.3797 24.8144 43.8327C24.8144 42.7178 24.4151 42.1498 23.5955 42.1498C23.2172 42.1498 22.9229 42.2971 22.6917 42.5916C22.4605 42.8861 22.3555 43.3068 22.3555 43.8327Z" fill="#0095FF"/>
<path d="M27.0422 39.3519L28.2401 39.0574V44.8635C28.2401 45.4946 28.4293 45.8732 28.8076 45.9995C28.6184 46.3571 28.3032 46.5254 27.8618 46.5254C27.3154 46.5254 27.0422 46.1467 27.0422 45.3894V39.3519Z" fill="#0095FF"/>
<path d="M32.8638 46.4413V45.9995C32.6957 46.1467 32.4645 46.273 32.1703 46.3782C31.876 46.4833 31.6028 46.5254 31.3506 46.5254C30.1527 46.5254 29.5642 45.8943 29.5642 44.6111V41.2663H30.7622V44.5269C30.7622 45.1791 31.0564 45.5157 31.6449 45.5157C31.9181 45.5157 32.1703 45.4525 32.4015 45.3053C32.6326 45.158 32.8008 44.9897 32.8638 44.8215V41.2663H34.0618V46.4413H32.8638Z" fill="#0095FF"/>
<path d="M35.3648 42.234H34.7764V41.2663H35.3648V40.2145L36.5628 39.7727V41.2663H37.9709V42.234H36.5628V44.4849C36.5628 44.8635 36.6258 45.116 36.7309 45.2632C36.836 45.4105 37.0462 45.4946 37.3404 45.4946C37.6346 45.4946 37.9079 45.4105 38.1601 45.2632V46.3781C37.8868 46.4833 37.4875 46.5254 36.9621 46.5254C36.4577 46.5254 36.0584 46.3781 35.7852 46.0836C35.512 45.7891 35.3648 45.3894 35.3648 44.8425V42.234Z" fill="#0095FF"/>
<path d="M39.2108 46.4412V42.276H38.5593V41.2873H40.4298V46.4412H39.2108ZM39.8413 39.2678C40.0305 39.2678 40.1986 39.3309 40.3247 39.4782C40.4508 39.6044 40.5349 39.7727 40.5349 39.962C40.5349 40.1514 40.4718 40.3196 40.3247 40.4459C40.1776 40.5721 40.0305 40.6562 39.8413 40.6562C39.6522 40.6562 39.4841 40.5931 39.358 40.4459C39.2319 40.2986 39.1478 40.1514 39.1478 39.962C39.1478 39.7727 39.2108 39.6044 39.358 39.4782C39.5051 39.352 39.6522 39.2678 39.8413 39.2678Z" fill="#0095FF"/>
<path d="M41.3126 43.8327C41.3126 43.0544 41.5438 42.4022 41.9852 41.9184C42.4475 41.4135 43.036 41.1821 43.7926 41.1821C44.5702 41.1821 45.1797 41.4135 45.621 41.8974C46.0624 42.3812 46.2726 43.0333 46.2726 43.8538C46.2726 44.6742 46.0414 45.3263 45.6 45.8101C45.1587 46.294 44.5492 46.5464 43.7926 46.5464C43.015 46.5464 42.4055 46.294 41.9641 45.8101C41.5228 45.3053 41.3126 44.6531 41.3126 43.8327ZM42.5526 43.8327C42.5526 44.9687 42.9519 45.5367 43.7716 45.5367C44.1499 45.5367 44.4441 45.3894 44.6753 45.0949C44.8855 44.8004 45.0116 44.3797 45.0116 43.8327C45.0116 42.7178 44.6122 42.1498 43.7926 42.1498C43.4143 42.1498 43.1201 42.2971 42.8889 42.5916C42.6577 42.9071 42.5526 43.3068 42.5526 43.8327Z" fill="#0095FF"/>
<path d="M50.3497 46.4412V43.4541C50.3497 43.0123 50.2657 42.6968 50.0975 42.4864C49.9294 42.276 49.6562 42.1919 49.2779 42.1919C49.1097 42.1919 48.9206 42.234 48.7104 42.3391C48.5003 42.4443 48.3531 42.5705 48.2481 42.7178V46.4412H47.0501V41.2873H47.9118L48.143 41.7711C48.4792 41.3925 48.9626 41.1821 49.5931 41.1821C50.2026 41.1821 50.686 41.3715 51.0433 41.7291C51.4006 42.0867 51.5687 42.6126 51.5687 43.2647V46.4412H50.3497Z" fill="#0095FF"/>
<path d="M52.3253 46.1047L52.7457 45.137C53.103 45.4315 53.5023 45.5577 53.9646 45.5577C54.427 45.5577 54.6582 45.3894 54.6582 45.0529C54.6582 44.8635 54.5951 44.6952 54.448 44.569C54.3009 44.4428 54.0277 44.2955 53.6284 44.1272C52.7457 43.7486 52.3043 43.2437 52.3043 42.5706C52.3043 42.1288 52.4725 41.7712 52.8087 41.5187C53.145 41.2663 53.5863 41.1401 54.1118 41.1401C54.6582 41.1401 55.1626 41.2663 55.625 41.4977L55.2677 42.4233C54.9945 42.1919 54.6372 42.0867 54.1748 42.0867C53.7545 42.0867 53.5443 42.255 53.5443 42.5916C53.5443 42.7178 53.6074 42.844 53.7545 42.9492C53.9016 43.0544 54.1958 43.2016 54.6372 43.3699C55.0995 43.5382 55.4148 43.7696 55.625 44.0221C55.8351 44.2745 55.9192 44.59 55.9192 44.9477C55.9192 45.4315 55.7511 45.8102 55.3938 46.0836C55.0365 46.3571 54.5531 46.5044 53.9436 46.5044C53.6074 46.5044 53.3341 46.4833 53.124 46.4202C52.9348 46.3992 52.6616 46.273 52.3253 46.1047Z" fill="#0095FF"/>
<path d="M20.9054 49.9753L20.6112 50.5643C20.2539 50.2909 19.8966 50.1646 19.5393 50.1646C18.9929 50.1646 18.5515 50.354 18.2363 50.7537C17.921 51.1534 17.7529 51.6582 17.7529 52.3104C17.7529 52.9204 17.9 53.4253 18.2153 53.7829C18.5305 54.1616 18.9509 54.3509 19.4973 54.3509C19.8756 54.3509 20.1908 54.2457 20.422 54.0143V52.7732H19.6864V52.1631H21.1366V54.4771C20.9474 54.6454 20.6742 54.7716 20.338 54.8768C20.0017 54.982 19.6654 55.0241 19.3292 55.0241C18.5936 55.0241 18.0261 54.7716 17.6058 54.2878C17.1854 53.7829 16.9753 53.1308 16.9753 52.3104C16.9753 51.4899 17.2065 50.8168 17.6688 50.3119C18.1312 49.807 18.7617 49.5546 19.5393 49.5546C20.1068 49.5336 20.5481 49.6808 20.9054 49.9753Z" fill="#0095FF"/>
<path d="M25.0247 54.8979L23.6166 52.6259C23.4484 52.6259 23.1962 52.6049 22.86 52.5839V54.8979H22.1244V49.5967C22.1454 49.5967 22.3346 49.5967 22.6918 49.5757C23.0491 49.5546 23.3013 49.5546 23.4484 49.5546C24.7094 49.5546 25.361 50.0595 25.361 51.0692C25.361 51.4058 25.2559 51.7003 25.0457 51.9738C24.8355 52.2473 24.6044 52.4156 24.3101 52.4787L25.8443 54.9189H25.0247V54.8979ZM22.839 50.2699V51.9949C23.0071 52.0159 23.1752 52.0369 23.3434 52.0369C23.7847 52.0369 24.1 51.9738 24.2891 51.8266C24.4783 51.6793 24.5833 51.4479 24.5833 51.0692C24.5833 50.7747 24.4783 50.5644 24.2681 50.4382C24.0579 50.3119 23.7217 50.2488 23.2593 50.2488C23.1962 50.2278 23.0491 50.2488 22.839 50.2699Z" fill="#0095FF"/>
<path d="M25.9915 52.2262C25.9915 51.4689 26.1806 50.8168 26.5589 50.3119C26.9372 49.786 27.4626 49.5336 28.1141 49.5336C28.8497 49.5336 29.4172 49.765 29.7955 50.2488C30.1948 50.7326 30.384 51.3848 30.384 52.2262C30.384 53.0887 30.1948 53.7829 29.7955 54.2668C29.3962 54.7506 28.8497 55.003 28.1141 55.003C27.4416 55.003 26.9162 54.7506 26.5589 54.2247C26.2016 53.6988 25.9915 53.0256 25.9915 52.2262ZM26.7481 52.2262C26.7481 52.8363 26.8742 53.3412 27.1053 53.7409C27.3365 54.1405 27.6728 54.3509 28.1141 54.3509C28.5975 54.3509 28.9758 54.1616 29.249 53.7829C29.5012 53.4043 29.6273 52.8784 29.6273 52.2052C29.6273 50.8378 29.1229 50.1647 28.1141 50.1647C27.6728 50.1647 27.3155 50.354 27.0843 50.7116C26.8531 51.0903 26.7481 51.5741 26.7481 52.2262Z" fill="#0095FF"/>
<path d="M31.0775 49.6177H31.7921V53.236C31.7921 53.5516 31.8972 53.825 32.1073 54.0354C32.3175 54.2458 32.5907 54.3509 32.927 54.3509C33.2843 54.3509 33.5575 54.2458 33.7677 54.0564C33.9778 53.8461 34.0829 53.5726 34.0829 53.236V49.6388H34.7975V53.3202C34.7975 53.8461 34.6293 54.2668 34.2931 54.5823C33.9568 54.8768 33.5155 55.0241 32.927 55.0241C32.3385 55.0241 31.8761 54.8768 31.5609 54.5823C31.2456 54.2878 31.0775 53.8671 31.0775 53.3202V49.6177Z" fill="#0095FF"/>
<path d="M36.4367 52.8784V54.9189H35.7222V49.6178C36.2686 49.5967 36.6049 49.5757 36.71 49.5757C38.2442 49.5757 39.0218 50.0806 39.0218 51.1113C39.0218 52.3104 38.3493 52.8994 36.9832 52.8994C36.8991 52.8994 36.71 52.8994 36.4367 52.8784ZM36.4367 50.2699V52.2263C36.752 52.2473 36.8991 52.2683 36.9201 52.2683C37.8238 52.2683 38.2652 51.9107 38.2652 51.2165C38.2652 50.5644 37.7818 50.2488 36.8361 50.2488C36.752 50.2278 36.6049 50.2489 36.4367 50.2699Z" fill="#0095FF"/>
</svg>
