<svg width="660" height="649" viewBox="0 0 660 649" fill="none" xmlns="http://www.w3.org/2000/svg">
<path d="M498.174 73.9643L509.923 76.3049L500.524 68.8149C498.174 66.9423 495.354 65.0698 492.534 63.1973L492.064 62.7292H491.124C431.438 51.026 358.591 29.9602 275.406 0.468128L274.466 0H273.526C270.706 0.468128 267.886 0.936257 265.066 1.40438L254.727 3.2769L265.066 7.02192C356.711 40.259 434.727 62.7292 498.174 73.9643Z" fill="#D9EFFF"/>
<path d="M540.942 111.883L550.341 114.223L543.762 107.201C541.882 105.329 540.002 103.456 538.122 101.584L537.652 101.116H536.712C453.056 80.9862 348.252 52.4304 223.708 14.9801L222.768 14.512L221.829 14.9801C219.949 15.9163 218.069 16.8526 216.189 17.7889L209.609 21.0658L217.129 23.4064C346.842 62.261 455.876 92.2213 540.942 111.883Z" fill="#D9EFFF"/>
<path d="M580.42 156.823L589.819 160.1L583.71 152.142C582.77 151.205 581.83 149.801 580.89 148.865L579.48 147.46V146.056L577.6 145.12C505.694 119.841 379.27 80.5181 184.7 37.9184H183.29L182.35 38.8547C180.941 39.7909 179.531 40.7272 178.121 42.1315L172.951 45.8766L179.531 47.281C378.8 91.285 507.573 131.076 580.42 156.823Z" fill="#D9EFFF"/>
<path d="M616.608 209.253L626.007 213.935L620.368 205.04C618.958 202.7 617.548 200.827 616.138 198.486L615.668 197.55L614.728 197.082C528.252 153.546 377.39 95.9663 150.862 66.4742H149.452L148.512 67.4105C147.102 68.8149 146.162 69.7511 144.752 71.1555L140.993 75.8368L147.102 76.7731C378.33 105.797 530.132 164.781 616.608 209.253Z" fill="#D9EFFF"/>
<path d="M555.511 212.062C588.409 228.447 619.898 246.235 648.566 265.897L657.966 271.983L652.796 262.152C651.856 260.279 650.916 258.407 649.976 256.534L649.506 255.598V254.662L648.096 253.726C620.838 235.469 590.759 218.616 559.741 203.168C470.446 159.164 321.933 105.329 121.254 99.7113H119.844L118.904 100.648C117.964 102.052 117.024 102.988 115.614 104.393L111.384 109.074H117.964C318.643 114.691 466.686 168.058 555.511 212.062Z" fill="#D9EFFF"/>
<path d="M138.643 191.933L141.463 192.401V182.57L138.643 182.102C108.564 179.761 82.7156 184.443 65.7965 188.656L64.3865 189.124L63.9166 190.06C62.9766 191.464 62.5066 193.337 61.5667 194.741L58.7468 200.827L65.3265 198.955C82.7156 194.273 108.564 189.124 138.643 191.933Z" fill="#D9EFFF"/>
<path d="M558.801 244.831C600.159 267.769 639.637 294.453 675.355 323.477L684.284 330.499L680.055 320.2C679.115 317.859 677.705 315.05 676.765 312.71L676.295 311.773L675.825 311.305C641.047 283.686 602.979 258.407 563.501 236.405C464.336 181.166 302.194 118.905 94.9351 134.821H93.5252L92.5853 135.757C91.6453 137.162 90.7054 138.566 90.2354 139.97L92.5853 141.843L90.2354 140.438L86.9456 145.588L93.0552 145.12C299.374 128.267 460.106 190.06 558.801 244.831Z" fill="#D9EFFF"/>
<path d="M245.797 172.739C353.422 184.443 518.383 226.574 690.864 360.459L698.854 366.544L695.564 357.182C695.094 355.309 694.154 353.905 693.684 352.032L693.214 350.628V349.692L691.804 348.756C518.853 216.275 353.892 174.612 245.797 162.909C173.891 154.95 115.144 158.696 78.4859 163.377H77.076L71.4363 174.144L77.546 173.207C114.204 168.526 173.421 164.781 245.797 172.739Z" fill="#D9EFFF"/>
<path d="M49.3473 560.818L39.9478 557.073L39.0079 559.881C39.0079 560.35 18.7989 619.334 10.3394 700.32V700.788V701.256C11.2793 705.469 12.2193 709.682 13.1592 713.896L17.389 732.153L18.7989 713.896C26.3185 627.76 47.4674 564.563 47.9374 563.626L49.3473 560.818Z" fill="#D9EFFF"/>
<path d="M33.8382 390.887V388.078L23.4988 387.142V389.951C25.3787 453.148 17.8591 529.921 0 638.527V638.995V639.463C0.469976 644.145 1.40993 648.826 1.8799 653.039L4.69976 672.232L7.98958 653.507C27.7286 538.348 35.7181 456.893 33.8382 390.887Z" fill="#D9EFFF"/>
<path d="M61.5668 528.985L74.2561 488.258L64.8566 484.513L51.6973 525.24L61.5668 528.985Z" fill="#D9EFFF"/>
<path d="M35.2482 364.204C39.008 333.307 60.1569 313.178 60.1569 312.71L62.5067 310.837L54.9871 303.347L53.1072 305.22C53.1072 305.22 29.6084 327.222 25.3787 362.331L24.9087 365.14L34.7782 367.013L35.2482 364.204Z" fill="#D9EFFF"/>
<path d="M39.478 447.063L49.8175 448.467V445.658C50.7574 418.507 78.016 380.12 79.4259 378.716L81.3058 376.375L72.3763 369.821L70.4964 372.162C69.0865 374.035 40.418 413.357 39.0081 444.254L39.478 447.063Z" fill="#D9EFFF"/>
<path d="M98.695 398.845L101.045 396.973L93.5252 389.483L91.6453 391.823C87.8855 395.568 55.9272 431.614 38.5381 505.11L38.0681 507.919L47.9376 510.728L48.4076 507.919C65.3267 433.955 98.225 399.313 98.695 398.845Z" fill="#D9EFFF"/>
<path d="M104.335 437.232L95.405 431.614L73.3162 467.192L82.2457 472.81L104.335 437.232Z" fill="#D9EFFF"/>
<path d="M109.974 314.114L112.794 313.178L109.034 303.347L106.215 304.283C103.865 304.752 53.5773 321.604 39.478 373.566L38.5381 376.375L48.4076 379.652L49.3475 376.843C62.0369 329.562 108.094 314.582 109.974 314.114Z" fill="#D9EFFF"/>
<path d="M125.013 248.108L127.833 247.64L125.483 237.809L122.664 238.277C74.7261 245.299 47.4675 262.62 32.8983 275.728L31.9583 276.196V277.132L25.8486 298.198L34.7782 288.367C46.0576 276.664 72.3762 255.598 125.013 248.108Z" fill="#D9EFFF"/>
<path d="M259.896 209.721C367.521 213.935 532.012 250.449 705.433 400.718L713.423 407.74L710.133 397.909C709.193 395.568 708.723 393.228 707.783 390.887V389.951L706.843 389.015C532.482 239.682 367.051 203.636 259.427 199.423C148.982 195.209 70.0264 222.361 48.4075 230.787L47.4676 231.255L46.9976 232.66C46.5276 234.064 46.0576 235.469 45.5877 236.873L42.7678 244.831L49.3475 242.022C63.9167 235.937 143.813 205.508 259.896 209.721Z" fill="#D9EFFF"/>
<path d="M272.586 236.873C149.922 241.554 67.2066 291.176 63.4468 293.048L61.0969 294.921L67.2066 303.347L69.5565 301.943C72.8463 300.07 153.682 251.385 273.996 247.172C380.68 242.959 544.232 273.855 718.593 441.913L726.582 449.871L723.292 439.572C722.352 437.232 721.882 434.423 720.942 432.082L720.473 431.146L720.003 430.678C545.172 263.088 380.21 232.66 272.586 236.873Z" fill="#D9EFFF"/>
<path d="M500.054 304.283C429.557 275.728 357.651 265.897 286.215 274.323C164.491 288.367 84.5955 352.969 84.1255 353.437L81.7756 355.309L88.3553 363.268L90.7052 361.395C91.6451 360.927 169.661 298.198 288.095 284.154C393.369 271.514 555.981 296.325 729.872 483.108L737.861 491.535L735.042 480.3C734.102 477.491 733.632 475.15 732.692 472.341V471.405L732.222 470.937C657.966 392.76 579.95 336.584 500.054 304.283Z" fill="#D9EFFF"/>
<path d="M402.299 305.688C228.408 289.771 106.214 412.421 104.804 413.825L102.925 415.698L110.444 422.72L112.324 420.847C113.734 419.443 233.108 300.538 402.299 315.518C518.853 326.285 633.057 396.505 740.681 524.304L748.671 534.134L745.851 521.963C745.381 519.154 744.441 516.814 743.971 514.005V513.069L743.501 512.132C634.467 385.738 519.793 315.987 402.299 305.688Z" fill="#D9EFFF"/>
<path d="M110.914 493.875C194.57 374.034 363.761 295.389 552.691 389.951C650.916 439.104 691.804 497.152 739.742 565.031C744.441 571.585 748.671 578.138 753.371 584.692L760.89 595.459L758.541 582.82C758.071 580.011 757.601 576.734 757.131 573.925V572.989L756.661 572.053C753.841 567.84 750.551 563.626 747.731 559.413C699.324 490.598 657.496 431.146 556.921 381.056C362.821 283.686 188.93 364.672 102.925 487.79C24.4388 600.14 29.6086 729.344 40.418 796.754V797.223C42.7679 803.776 45.1177 809.862 47.9376 816.416L53.5773 815.011C30.0785 696.575 50.7575 579.543 110.914 493.875Z" fill="#D9EFFF"/>
<path d="M591.229 735.43C557.391 682.531 511.803 621.674 457.756 620.27H456.346C417.338 620.27 380.21 652.571 346.372 716.704C326.633 754.155 324.753 793.946 339.792 835.141C384.44 955.45 568.2 1055.63 604.858 1074.35L606.738 1075.29L608.148 1073.89C609.088 1072.95 610.028 1072.01 611.438 1071.08L614.258 1068.27L610.498 1066.4C574.78 1048.14 393.369 950.3 349.662 832.8C335.563 794.414 337.442 756.963 355.771 722.322C388.2 660.529 422.978 629.633 458.696 630.569C507.574 631.505 550.811 690.021 583.24 740.111C616.138 791.605 679.115 829.523 736.452 859.484L739.741 860.888L740.681 857.611C741.151 856.207 741.621 854.802 741.621 853.866L742.091 851.525L739.741 850.121C683.344 821.097 622.248 784.115 591.229 735.43Z" fill="#D9EFFF"/>
<path d="M604.858 719.045L603.919 718.109C570.08 669.892 513.683 589.373 445.537 588.437H444.597C399.479 588.437 356.711 624.015 317.703 694.702C292.325 740.111 288.565 787.86 306.424 837.013C352.482 964.812 529.662 1065.46 582.77 1093.08L584.65 1094.02L586.529 1092.61C587.469 1091.68 588.409 1091.21 589.819 1090.27L593.109 1087.46L588.879 1085.12C551.281 1065.93 362.351 962.472 315.823 834.205C298.904 787.86 302.664 742.451 326.633 699.852C364.231 631.973 404.649 597.8 446.477 598.268C509.453 599.204 563.501 676.913 595.929 723.258L596.869 724.194C631.177 772.88 691.804 812.671 741.151 841.226L744.441 843.099L747.261 833.268L744.911 831.864C696.504 804.712 637.287 766.326 604.858 719.045Z" fill="#D9EFFF"/>
<path d="M618.488 703.129C616.608 700.788 615.198 698.447 613.318 696.107L609.088 690.021C571.49 639.931 508.983 556.605 433.317 556.136C382.56 556.136 333.683 594.991 289.035 672.232C258.017 726.067 252.377 782.242 272.586 839.354C320.523 975.579 503.344 1081.38 558.331 1110.4L559.741 1111.34L569.14 1105.25L564.441 1102.91C509.923 1074.35 329.453 970.898 281.985 837.013C262.716 782.711 267.886 728.876 297.494 677.85C340.262 603.885 386.32 566.435 433.787 566.435C503.814 566.435 564.441 647.421 600.159 695.639C603.449 700.32 606.738 704.533 610.028 708.746C645.746 755.559 701.203 794.414 745.381 822.97L748.671 825.31L749.611 821.565C750.081 820.161 750.081 818.756 750.551 817.352L751.021 815.479L749.141 814.075C706.843 786.455 652.796 748.537 618.488 703.129Z" fill="#D9EFFF"/>
<path d="M649.976 693.298C560.211 559.413 479.845 530.858 428.618 530.389C367.521 529.921 314.414 567.84 278.226 637.591C235.928 719.981 230.288 800.499 261.776 877.272C316.294 1010.22 467.156 1095.89 529.662 1126.78L531.072 1127.25L532.482 1126.78C533.892 1125.85 535.302 1125.38 537.182 1124.44L542.352 1121.64L536.712 1118.83C488.305 1095.42 326.633 1008.35 271.176 873.996C240.627 800.031 246.267 721.854 287.625 642.272C321.463 576.266 371.751 540.22 428.618 540.22H429.558C478.435 540.688 555.041 568.308 641.987 697.979C668.775 737.77 716.243 773.816 751.961 796.754L755.721 799.095L756.661 794.882C757.131 793.478 757.131 792.541 757.601 791.137L758.07 789.264L756.191 787.86C721.412 765.858 675.355 731.216 649.976 693.298Z" fill="#D9EFFF"/>
<path d="M662.196 671.764C625.067 617.461 589.349 578.607 549.401 550.519C495.354 512.6 440.367 497.152 389.61 506.515C334.623 516.814 286.215 555.668 252.847 616.525C179.531 750.878 217.599 863.229 262.246 933.916C331.333 1044.39 458.226 1112.27 509.453 1136.62L510.863 1137.08L512.273 1136.62C514.153 1136.15 515.563 1135.21 517.443 1134.74L523.083 1131.93L516.973 1129.13C465.746 1105.72 339.792 1038.78 271.176 929.235C227.938 860.888 191.28 752.282 262.716 622.142C294.675 563.626 340.732 526.176 392.9 516.814C440.837 507.919 493.004 522.431 544.702 558.945C583.71 586.565 618.488 624.015 654.676 677.382C675.355 708.278 709.663 741.047 756.191 775.689L759.95 778.497L760.89 774.284C761.36 772.88 761.36 771.475 761.83 770.071L762.3 768.199L760.89 766.794C714.833 732.621 681.934 701.256 662.196 671.764Z" fill="#D9EFFF"/>
<path d="M674.415 650.23C633.057 590.31 596.399 551.923 550.341 521.963C491.124 483.577 430.968 469.065 375.51 479.831C316.294 491.535 263.656 532.262 227.938 594.523C166.841 700.788 168.251 823.438 230.758 930.171C300.314 1048.61 432.847 1118.83 486.425 1143.64L487.365 1144.11L488.305 1143.64C490.184 1143.17 491.594 1142.7 493.474 1142.23L500.994 1139.89L493.474 1136.62C439.897 1112.27 307.834 1043.46 238.748 925.958C203.029 865.101 155.092 741.515 235.928 600.14C270.236 540.22 320.523 500.897 377.39 489.662C430.028 479.363 487.835 493.407 544.232 530.389C588.409 559.413 624.597 596.864 665.015 655.38C685.224 684.872 716.243 717.173 757.131 750.878L761.36 754.155L762.3 749.005C762.77 747.601 762.77 745.728 762.77 744.324V742.451L761.36 741.515C723.292 709.682 693.684 678.786 674.415 650.23Z" fill="#D9EFFF"/>
<path d="M686.634 628.696C653.736 581.415 614.728 532.262 551.751 493.875C388.67 395.1 262.246 474.682 203.029 573.457C138.173 681.595 137.233 813.607 199.74 927.362C266.006 1047.67 391.02 1118.36 459.636 1150.19L460.576 1150.66H461.516C463.866 1150.19 466.216 1149.72 468.096 1149.26L477.025 1147.38L468.096 1143.64C399.479 1112.74 273.996 1042.99 208.199 923.617C147.572 813.139 148.512 684.404 211.489 579.543C268.356 484.513 390.08 407.74 546.582 502.77C608.148 540.22 646.216 587.969 678.175 634.314C697.914 663.338 725.642 693.766 760.42 725.599L765.12 729.812L765.59 724.194C765.59 722.79 766.06 720.918 766.06 719.045V717.641L765.12 716.704C731.752 685.808 705.433 656.316 686.634 628.696Z" fill="#D9EFFF"/>
<path d="M698.854 607.631C658.436 549.583 618.018 503.238 552.691 465.788C477.495 422.72 400.419 410.549 330.393 431.614C269.296 449.871 215.249 492.471 177.651 551.923C108.094 662.87 104.335 801.904 167.781 924.085C231.698 1047.2 355.772 1120.23 424.388 1152.53L424.858 1153H425.798C428.618 1153 431.908 1153 434.727 1153L446.477 1152.53L435.197 1147.38C366.111 1115.55 240.627 1043.93 176.711 920.808C115.144 801.904 118.434 666.147 186.11 558.477C247.677 459.702 379.74 378.716 547.991 475.15C611.438 511.664 650.916 556.605 690.394 613.248C709.663 640.868 733.632 669.423 761.36 697.511L766.53 702.661V696.107C766.53 694.234 766.53 692.362 766.53 690.489V689.085L765.59 688.149C739.271 660.529 716.713 633.378 698.854 607.631Z" fill="#D9EFFF"/>
<path d="M711.073 586.097C674.885 534.603 633.057 480.768 554.101 437.7C473.265 393.696 390.55 382.461 315.354 405.399C250.027 425.06 192.69 469.533 152.742 530.389C65.3266 664.274 87.4155 820.161 136.763 921.277C192.69 1035.97 297.964 1108.06 375.98 1148.32L376.92 1148.79H377.39C381.62 1149.72 385.38 1150.19 389.61 1150.66L406.529 1153L390.55 1145.04C310.184 1105.25 202.559 1033.63 145.692 917.531C97.2849 819.225 76.136 667.083 161.202 536.475C233.578 425.529 381.62 354.841 549.871 446.126C626.947 488.258 667.835 540.688 703.083 591.246C720.943 616.993 740.681 641.804 761.83 665.21L767.47 671.296L767 662.87C767 660.997 767 659.125 767 657.252V656.316L766.06 655.38C746.321 633.378 727.992 609.971 711.073 586.097Z" fill="#D9EFFF"/>
<path d="M763.71 620.27V619.334L763.24 618.398C748.201 599.204 734.572 580.479 723.292 564.563C683.344 508.387 640.577 454.084 555.041 409.144C370.811 313.178 207.729 390.419 127.363 508.855C34.3081 646.485 57.3369 815.011 104.804 918C138.643 990.56 194.57 1054.69 271.176 1108.06L272.116 1108.53C283.395 1115.55 295.145 1121.17 306.894 1126.32L309.244 1121.17C217.599 1064.99 151.802 995.241 114.204 914.255C67.6764 814.075 45.1175 649.294 135.823 514.941C213.839 399.782 372.221 324.881 550.811 418.039C633.997 461.575 675.825 514.473 714.833 569.712C726.112 585.628 741.621 607.162 758.54 628.696L764.65 636.654L763.71 627.292C764.18 624.951 764.18 622.611 763.71 620.27Z" fill="#D9EFFF"/>
<path d="M352.952 0.468137C346.842 8.31485e-06 340.262 8.31485e-06 333.683 0.936265C370.341 14.0439 431.907 31.8327 452.116 36.0459C432.847 22.002 376.92 2.80878 352.952 0.468137Z" fill="#D9EFFF"/>
</svg>
