<svg width="36" height="36" viewBox="0 0 36 36" fill="none" xmlns="http://www.w3.org/2000/svg">
<path d="M0.948486 35.0758C0.948486 28.1296 0.948486 21.2453 0.948486 14.2163C1.51594 14.6918 2.04136 15.1053 2.52474 15.5394C4.71048 17.4414 4.71048 17.4414 4.71048 20.3356C4.71048 23.7054 4.71048 27.0959 4.71048 30.4657C4.71048 30.7137 4.71048 30.9618 4.71048 31.2306C4.92065 31.2719 5.04675 31.2926 5.17285 31.2926C10.4691 31.2926 15.7653 31.3753 21.0615 31.2306C26.2526 31.0859 30.7502 26.7858 31.1285 21.8862C31.5698 16.2216 28.039 11.4667 22.5957 10.3917C21.734 10.2263 20.8303 10.185 19.9476 10.1643C16.8371 10.1436 13.7056 10.1643 10.5952 10.1436C9.25009 10.1436 8.38841 9.46139 8.30434 8.40705C8.22027 7.39405 8.85077 6.58778 9.85958 6.42239C10.1748 6.36037 10.4901 6.36037 10.8053 6.36037C14.2731 6.36037 17.7198 6.29835 21.1876 6.40172C28.0601 6.62913 34.0078 11.9629 34.9115 18.5991C35.8783 25.6281 31.759 32.2229 25.0336 34.2903C23.6255 34.7244 22.1123 35.0138 20.6412 35.0138C14.2521 35.0965 7.84197 35.0552 1.45289 35.0552C1.28475 35.0965 1.15865 35.0758 0.948486 35.0758Z" fill="#0095FF"/>
<path d="M28.7536 4.00356C27.8499 4.00356 27.1773 4.00356 26.5048 4.00356C21.2296 4.00356 15.9754 4.00356 10.7002 4.00356C8.19922 4.00356 6.51788 5.28532 6.07653 7.45604C5.55112 9.99887 7.56872 12.459 10.1958 12.4797C13.5585 12.5004 16.9001 12.4797 20.2628 12.4797C24.8024 12.4797 28.3753 15.6221 28.6905 20.1082C29.0268 24.553 26.1265 28.0262 21.734 28.8531C21.5028 28.8944 21.2716 28.9151 21.0404 28.9151C16.5849 28.9151 12.1293 28.9151 7.6738 28.9151C7.50567 28.9151 7.31652 28.8944 7.10635 28.8944C7.10635 27.592 7.10635 26.3309 7.10635 24.9872C7.4216 24.9872 7.73685 24.9872 8.0521 24.9872C12.0032 24.9872 15.9754 24.9872 19.9266 24.9872C22.4065 24.9872 24.0668 23.8088 24.5923 21.7621C25.2228 19.3019 23.4784 16.6971 20.9143 16.573C18.035 16.4283 15.1558 16.5317 12.2765 16.4697C11.0155 16.449 9.73344 16.4904 8.51447 16.2423C4.6474 15.4773 1.93624 12.1076 1.91522 8.2623C1.8942 4.54107 4.60536 1.12995 8.32532 0.261661C8.97684 0.116947 9.67039 0.034253 10.3429 0.034253C15.0507 -0.00709402 19.7794 -0.00709402 24.4872 0.0135795C24.8234 0.0135795 25.2858 0.0755999 25.496 0.303008C26.5678 1.44005 27.5977 2.63911 28.7536 4.00356Z" fill="#0095FF"/>
</svg>
