<svg width="56" height="55" viewBox="0 0 56 55" fill="none" xmlns="http://www.w3.org/2000/svg">
<path d="M10.9644 35.6916C10.9644 28.6234 10.9644 21.6183 10.9644 14.4659C11.5318 14.9497 12.0572 15.3704 12.5406 15.8122C14.7263 17.7476 14.7263 17.7476 14.7263 20.6927C14.7263 24.1216 14.7263 27.5716 14.7263 31.0005C14.7263 31.2529 14.7263 31.5054 14.7263 31.7789C14.9365 31.8209 15.0626 31.842 15.1887 31.842C20.4849 31.842 25.7811 31.9261 31.0774 31.7789C36.2685 31.6316 40.7661 27.256 41.1444 22.2704C41.5857 16.5064 38.0549 11.668 32.6116 10.5741C31.7499 10.4058 30.8462 10.3638 29.9635 10.3427C26.853 10.3217 23.7215 10.3427 20.611 10.3217C19.266 10.3217 18.4043 9.62749 18.3202 8.55463C18.2361 7.52385 18.8666 6.70342 19.8754 6.53513C20.1907 6.47202 20.5059 6.47202 20.8212 6.47202C24.289 6.47202 27.7357 6.40891 31.2035 6.5141C38.0759 6.7455 44.0237 12.1729 44.9274 18.9256C45.8941 26.078 41.7749 32.7886 35.0495 34.8922C33.6414 35.334 32.1282 35.6285 30.657 35.6285C24.2679 35.7127 17.8578 35.6706 11.4688 35.6706C11.3006 35.7127 11.1745 35.6916 10.9644 35.6916Z" fill="white"/>
<path d="M38.7694 4.07385C37.8657 4.07385 37.1931 4.07385 36.5206 4.07385C31.2454 4.07385 25.9912 4.07385 20.716 4.07385C18.215 4.07385 16.5337 5.37811 16.0923 7.58693C15.5669 10.1744 17.5845 12.6778 20.2116 12.6988C23.5743 12.7198 26.916 12.6988 30.2786 12.6988C34.8182 12.6988 38.3911 15.8963 38.7063 20.4612C39.0426 24.9841 36.1423 28.5182 31.7498 29.3596C31.5186 29.4017 31.2874 29.4228 31.0562 29.4228C26.6007 29.4228 22.1452 29.4228 17.6896 29.4228C17.5215 29.4228 17.3323 29.4017 17.1222 29.4017C17.1222 28.0764 17.1222 26.7932 17.1222 25.4258C17.4374 25.4258 17.7527 25.4258 18.0679 25.4258C22.0191 25.4258 25.9912 25.4258 29.9424 25.4258C32.4223 25.4258 34.0827 24.2268 34.6081 22.1441C35.2386 19.6408 33.4942 16.9902 30.9301 16.864C28.0509 16.7167 25.1716 16.8219 22.2923 16.7588C21.0313 16.7378 19.7493 16.7799 18.5303 16.5274C14.6632 15.7491 11.952 12.3201 11.931 8.40736C11.91 4.6208 14.6212 1.14979 18.3411 0.266255C18.9926 0.119 19.6862 0.0348543 20.3587 0.0348543C25.0665 -0.00721856 29.7952 -0.00721856 34.503 0.0138179C34.8393 0.0138179 35.3016 0.0769272 35.5118 0.308328C36.5836 1.46533 37.6135 2.68545 38.7694 4.07385Z" fill="white"/>
<path d="M1.61188 46.4412H0.0566406V39.373C1.06544 39.3309 1.67493 39.3099 1.94815 39.3099C2.97796 39.3099 3.79762 39.6044 4.38608 40.2144C4.99557 40.8245 5.2898 41.6239 5.2898 42.6126C5.2898 45.158 4.07083 46.4412 1.61188 46.4412ZM1.31764 40.4669V45.2842C1.52781 45.3053 1.73798 45.3053 1.96916 45.3053C2.59966 45.3053 3.10406 45.0739 3.46135 44.6111C3.81863 44.1483 4.00778 43.5172 4.00778 42.6757C4.00778 41.1611 3.31423 40.4038 1.90611 40.4038C1.73798 40.4458 1.54883 40.4458 1.31764 40.4669Z" fill="white"/>
<path d="M10.7331 44.2324H7.05519C7.07621 44.6532 7.22333 44.9687 7.47553 45.2001C7.72773 45.4315 8.08501 45.5367 8.52636 45.5367C9.0728 45.5367 9.49313 45.3894 9.78737 45.116L10.2497 46.0416C9.8294 46.3781 9.1989 46.5675 8.35823 46.5675C7.58061 46.5675 6.95011 46.3361 6.48774 45.8733C6.02537 45.4105 5.79419 44.7583 5.79419 43.9379C5.79419 43.1175 6.04639 42.4654 6.55079 41.9605C7.05519 41.4556 7.66468 41.2032 8.35823 41.2032C9.11483 41.2032 9.7033 41.4346 10.1657 41.8764C10.628 42.3181 10.8382 42.8861 10.8382 43.5803C10.8382 43.7065 10.7962 43.9169 10.7331 44.2324ZM7.09723 43.3068H9.64025C9.55618 42.5495 9.13585 42.1709 8.37925 42.1709C7.68569 42.1919 7.26536 42.5706 7.09723 43.3068Z" fill="white"/>
<path d="M13.7386 46.5254H13.2972L10.9644 41.2663H12.2884L13.5284 44.4218L14.8524 41.2663H16.1345L13.7386 46.5254Z" fill="white"/>
<path d="M16.3445 46.0416L16.8068 44.9266C17.3113 45.2843 17.7946 45.4526 18.257 45.4526C18.9926 45.4526 19.3499 45.2001 19.3499 44.6742C19.3499 44.4428 19.2658 44.2114 19.0977 43.98C18.9295 43.7696 18.5723 43.5172 18.0258 43.2437C17.4794 42.9703 17.1221 42.7389 16.933 42.5706C16.7438 42.4023 16.5967 42.1919 16.4916 41.9395C16.3865 41.7081 16.3445 41.4346 16.3445 41.1401C16.3445 40.5931 16.5546 40.1303 16.954 39.7727C17.3533 39.4151 17.8577 39.2258 18.4882 39.2258C19.3078 39.2258 19.8963 39.373 20.2746 39.6886L19.8963 40.7614C19.455 40.4459 18.9926 40.2986 18.5092 40.2986C18.215 40.2986 18.0048 40.3828 17.8367 40.53C17.6685 40.6773 17.6055 40.8876 17.6055 41.119C17.6055 41.5187 18.0468 41.9395 18.9506 42.3812C19.4129 42.6126 19.7702 42.823 19.9804 43.0123C20.1905 43.2017 20.3377 43.4331 20.4638 43.6855C20.5688 43.9379 20.6319 44.2324 20.6319 44.548C20.6319 45.116 20.4007 45.5998 19.9594 45.9574C19.518 46.3361 18.9085 46.5044 18.1519 46.5044C17.4584 46.5465 16.8699 46.3782 16.3445 46.0416Z" fill="white"/>
<path d="M21.1152 43.8327C21.1152 43.0544 21.3464 42.4022 21.7878 41.9184C22.2501 41.4135 22.8386 41.1821 23.5952 41.1821C24.3728 41.1821 24.9823 41.4135 25.4237 41.8974C25.865 42.3812 26.0752 43.0333 26.0752 43.8538C26.0752 44.6742 25.844 45.3263 25.4026 45.8101C24.9613 46.294 24.3518 46.5464 23.5952 46.5464C22.8176 46.5464 22.2081 46.294 21.7668 45.8101C21.3254 45.3053 21.1152 44.6531 21.1152 43.8327ZM22.3552 43.8327C22.3552 44.9687 22.7545 45.5367 23.5742 45.5367C23.9525 45.5367 24.2467 45.3894 24.4779 45.0949C24.6881 44.8004 24.8142 44.3797 24.8142 43.8327C24.8142 42.7178 24.4149 42.1498 23.5952 42.1498C23.2169 42.1498 22.9227 42.2971 22.6915 42.5916C22.4603 42.8861 22.3552 43.3068 22.3552 43.8327Z" fill="white"/>
<path d="M27.042 39.3519L28.2399 39.0574V44.8635C28.2399 45.4946 28.4291 45.8732 28.8074 45.9995C28.6182 46.3571 28.303 46.5254 27.8616 46.5254C27.3152 46.5254 27.042 46.1467 27.042 45.3894V39.3519Z" fill="white"/>
<path d="M32.8638 46.4413V45.9995C32.6957 46.1467 32.4645 46.273 32.1703 46.3782C31.876 46.4833 31.6028 46.5254 31.3506 46.5254C30.1527 46.5254 29.5642 45.8943 29.5642 44.6111V41.2663H30.7622V44.5269C30.7622 45.1791 31.0564 45.5157 31.6449 45.5157C31.9181 45.5157 32.1703 45.4525 32.4015 45.3053C32.6326 45.158 32.8008 44.9897 32.8638 44.8215V41.2663H34.0618V46.4413H32.8638Z" fill="white"/>
<path d="M35.3648 42.234H34.7764V41.2663H35.3648V40.2145L36.5628 39.7727V41.2663H37.9709V42.234H36.5628V44.4849C36.5628 44.8635 36.6258 45.116 36.7309 45.2632C36.836 45.4105 37.0462 45.4946 37.3404 45.4946C37.6346 45.4946 37.9079 45.4105 38.1601 45.2632V46.3781C37.8868 46.4833 37.4875 46.5254 36.9621 46.5254C36.4577 46.5254 36.0584 46.3781 35.7852 46.0836C35.512 45.7891 35.3648 45.3894 35.3648 44.8425V42.234Z" fill="white"/>
<path d="M39.2108 46.4412V42.276H38.5593V41.2873H40.4298V46.4412H39.2108ZM39.8413 39.2678C40.0305 39.2678 40.1986 39.3309 40.3247 39.4782C40.4508 39.6044 40.5349 39.7727 40.5349 39.962C40.5349 40.1514 40.4718 40.3196 40.3247 40.4459C40.1776 40.5721 40.0305 40.6562 39.8413 40.6562C39.6522 40.6562 39.4841 40.5931 39.358 40.4459C39.2319 40.2986 39.1478 40.1514 39.1478 39.962C39.1478 39.7727 39.2108 39.6044 39.358 39.4782C39.5051 39.352 39.6522 39.2678 39.8413 39.2678Z" fill="white"/>
<path d="M41.3125 43.8327C41.3125 43.0544 41.5437 42.4022 41.985 41.9184C42.4474 41.4135 43.0359 41.1821 43.7925 41.1821C44.5701 41.1821 45.1796 41.4135 45.6209 41.8974C46.0623 42.3812 46.2724 43.0333 46.2724 43.8538C46.2724 44.6742 46.0413 45.3263 45.5999 45.8101C45.1586 46.294 44.5491 46.5464 43.7925 46.5464C43.0149 46.5464 42.4054 46.294 41.964 45.8101C41.5227 45.3053 41.3125 44.6531 41.3125 43.8327ZM42.5525 43.8327C42.5525 44.9687 42.9518 45.5367 43.7715 45.5367C44.1498 45.5367 44.444 45.3894 44.6752 45.0949C44.8853 44.8004 45.0114 44.3797 45.0114 43.8327C45.0114 42.7178 44.6121 42.1498 43.7925 42.1498C43.4142 42.1498 43.1199 42.2971 42.8888 42.5916C42.6576 42.9071 42.5525 43.3068 42.5525 43.8327Z" fill="white"/>
<path d="M50.3497 46.4412V43.4541C50.3497 43.0123 50.2656 42.6968 50.0975 42.4864C49.9293 42.276 49.6561 42.1919 49.2778 42.1919C49.1097 42.1919 48.9205 42.234 48.7104 42.3391C48.5002 42.4443 48.3531 42.5705 48.248 42.7178V46.4412H47.05V41.2873H47.9117L48.1429 41.7711C48.4792 41.3925 48.9626 41.1821 49.5931 41.1821C50.2026 41.1821 50.6859 41.3715 51.0432 41.7291C51.4005 42.0867 51.5686 42.6126 51.5686 43.2647V46.4412H50.3497Z" fill="white"/>
<path d="M52.3252 46.1047L52.7455 45.137C53.1028 45.4315 53.5022 45.5577 53.9645 45.5577C54.4269 45.5577 54.6581 45.3894 54.6581 45.0529C54.6581 44.8635 54.595 44.6952 54.4479 44.569C54.3008 44.4428 54.0276 44.2955 53.6283 44.1272C52.7455 43.7486 52.3042 43.2437 52.3042 42.5706C52.3042 42.1288 52.4723 41.7712 52.8086 41.5187C53.1449 41.2663 53.5862 41.1401 54.1116 41.1401C54.6581 41.1401 55.1625 41.2663 55.6248 41.4977L55.2676 42.4233C54.9943 42.1919 54.6371 42.0867 54.1747 42.0867C53.7544 42.0867 53.5442 42.255 53.5442 42.5916C53.5442 42.7178 53.6072 42.844 53.7544 42.9492C53.9015 43.0544 54.1957 43.2016 54.6371 43.3699C55.0994 43.5382 55.4147 43.7696 55.6248 44.0221C55.835 44.2745 55.9191 44.59 55.9191 44.9477C55.9191 45.4315 55.7509 45.8102 55.3937 46.0836C55.0364 46.3571 54.553 46.5044 53.9435 46.5044C53.6072 46.5044 53.334 46.4833 53.1238 46.4202C52.9347 46.3992 52.6615 46.273 52.3252 46.1047Z" fill="white"/>
<path d="M20.9052 49.9753L20.611 50.5643C20.2537 50.2909 19.8964 50.1646 19.5391 50.1646C18.9927 50.1646 18.5514 50.354 18.2361 50.7537C17.9209 51.1534 17.7527 51.6582 17.7527 52.3104C17.7527 52.9204 17.8998 53.4253 18.2151 53.7829C18.5303 54.1616 18.9507 54.3509 19.4971 54.3509C19.8754 54.3509 20.1907 54.2457 20.4218 54.0143V52.7732H19.6863V52.1631H21.1364V54.4771C20.9473 54.6454 20.674 54.7716 20.3378 54.8768C20.0015 54.982 19.6652 55.0241 19.329 55.0241C18.5934 55.0241 18.0259 54.7716 17.6056 54.2878C17.1853 53.7829 16.9751 53.1308 16.9751 52.3104C16.9751 51.4899 17.2063 50.8168 17.6687 50.3119C18.131 49.807 18.7615 49.5546 19.5391 49.5546C20.1066 49.5336 20.5479 49.6808 20.9052 49.9753Z" fill="white"/>
<path d="M25.0246 54.8979L23.6165 52.6259C23.4483 52.6259 23.1961 52.6049 22.8599 52.5839V54.8979H22.1243V49.5967C22.1453 49.5967 22.3344 49.5967 22.6917 49.5757C23.049 49.5546 23.3012 49.5546 23.4483 49.5546C24.7093 49.5546 25.3608 50.0595 25.3608 51.0692C25.3608 51.4058 25.2558 51.7003 25.0456 51.9738C24.8354 52.2473 24.6042 52.4156 24.31 52.4787L25.8442 54.9189H25.0246V54.8979ZM22.8388 50.2699V51.9949C23.007 52.0159 23.1751 52.0369 23.3432 52.0369C23.7846 52.0369 24.0998 51.9738 24.289 51.8266C24.4781 51.6793 24.5832 51.4479 24.5832 51.0692C24.5832 50.7747 24.4781 50.5644 24.268 50.4382C24.0578 50.3119 23.7215 50.2488 23.2592 50.2488C23.1961 50.2278 23.049 50.2488 22.8388 50.2699Z" fill="white"/>
<path d="M25.9912 52.2262C25.9912 51.4689 26.1804 50.8168 26.5587 50.3119C26.937 49.786 27.4624 49.5336 28.1139 49.5336C28.8495 49.5336 29.4169 49.765 29.7952 50.2488C30.1946 50.7326 30.3837 51.3848 30.3837 52.2262C30.3837 53.0887 30.1946 53.7829 29.7952 54.2668C29.3959 54.7506 28.8495 55.003 28.1139 55.003C27.4414 55.003 26.9159 54.7506 26.5587 54.2247C26.2014 53.6988 25.9912 53.0256 25.9912 52.2262ZM26.7478 52.2262C26.7478 52.8363 26.8739 53.3412 27.1051 53.7409C27.3363 54.1405 27.6725 54.3509 28.1139 54.3509C28.5973 54.3509 28.9756 54.1616 29.2488 53.7829C29.501 53.4043 29.6271 52.8784 29.6271 52.2052C29.6271 50.8378 29.1227 50.1647 28.1139 50.1647C27.6725 50.1647 27.3153 50.354 27.0841 50.7116C26.8529 51.0903 26.7478 51.5741 26.7478 52.2262Z" fill="white"/>
<path d="M31.0774 49.6177H31.792V53.236C31.792 53.5516 31.897 53.825 32.1072 54.0354C32.3174 54.2458 32.5906 54.3509 32.9269 54.3509C33.2841 54.3509 33.5574 54.2458 33.7675 54.0564C33.9777 53.8461 34.0828 53.5726 34.0828 53.236V49.6388H34.7974V53.3202C34.7974 53.8461 34.6292 54.2668 34.2929 54.5823C33.9567 54.8768 33.5153 55.0241 32.9269 55.0241C32.3384 55.0241 31.876 54.8768 31.5608 54.5823C31.2455 54.2878 31.0774 53.8671 31.0774 53.3202V49.6177Z" fill="white"/>
<path d="M36.4365 52.8784V54.9189H35.7219V49.6178C36.2684 49.5967 36.6046 49.5757 36.7097 49.5757C38.2439 49.5757 39.0215 50.0806 39.0215 51.1113C39.0215 52.3104 38.349 52.8994 36.9829 52.8994C36.8989 52.8994 36.7097 52.8994 36.4365 52.8784ZM36.4365 50.2699V52.2263C36.7517 52.2473 36.8989 52.2683 36.9199 52.2683C37.8236 52.2683 38.2649 51.9107 38.2649 51.2165C38.2649 50.5644 37.7816 50.2488 36.8358 50.2488C36.7517 50.2278 36.6046 50.2489 36.4365 50.2699Z" fill="white"/>
</svg>
